<mxfile host="app.diagrams.net" agent="Mozilla/5.0 (Windows NT 10.0; Win64; x64) AppleWebKit/537.36 (KHTML, like Gecko) Chrome/131.0.0.0 Safari/537.36" version="25.0.3">
  <diagram name="Page-1" id="kbPdjWkIte7VOqI4fmI9">
    <mxGraphModel dx="1687" dy="932" grid="1" gridSize="10" guides="1" tooltips="1" connect="1" arrows="1" fold="1" page="1" pageScale="1" pageWidth="1654" pageHeight="1169" math="0" shadow="0">
      <root>
        <mxCell id="0" />
        <mxCell id="1" parent="0" />
        <mxCell id="28MRgLjDr1vpFrhW2gKt-58" value="" style="edgeStyle=orthogonalEdgeStyle;rounded=1;orthogonalLoop=1;jettySize=auto;html=1;flowAnimation=0;endArrow=none;endFill=0;" edge="1" parent="1" source="28MRgLjDr1vpFrhW2gKt-130" target="28MRgLjDr1vpFrhW2gKt-53">
          <mxGeometry relative="1" as="geometry" />
        </mxCell>
        <mxCell id="28MRgLjDr1vpFrhW2gKt-48" value="Professional" style="swimlane;fontStyle=0;childLayout=stackLayout;horizontal=1;startSize=26;fillColor=#B3B3B3;horizontalStack=0;resizeParent=1;resizeParentMax=0;resizeLast=0;collapsible=1;marginBottom=0;html=1;rounded=1;swimlaneFillColor=#666666;fontColor=#FFFFFF;" vertex="1" parent="1">
          <mxGeometry x="520" y="230" width="160" height="130" as="geometry">
            <mxRectangle x="360" y="280" width="120" height="30" as="alternateBounds" />
          </mxGeometry>
        </mxCell>
        <mxCell id="28MRgLjDr1vpFrhW2gKt-49" value="+ id" style="text;strokeColor=none;fillColor=#000000;align=left;verticalAlign=top;spacingLeft=4;spacingRight=4;overflow=hidden;rotatable=0;points=[[0,0.5],[1,0.5]];portConstraint=eastwest;whiteSpace=wrap;html=1;glass=0;shadow=0;fontColor=#FFFFFF;" vertex="1" parent="28MRgLjDr1vpFrhW2gKt-48">
          <mxGeometry y="26" width="160" height="26" as="geometry" />
        </mxCell>
        <mxCell id="28MRgLjDr1vpFrhW2gKt-50" value="+ userId" style="text;strokeColor=none;fillColor=none;align=left;verticalAlign=top;spacingLeft=4;spacingRight=4;overflow=hidden;rotatable=0;points=[[0,0.5],[1,0.5]];portConstraint=eastwest;whiteSpace=wrap;html=1;fontColor=#FFFFFF;" vertex="1" parent="28MRgLjDr1vpFrhW2gKt-48">
          <mxGeometry y="52" width="160" height="26" as="geometry" />
        </mxCell>
        <mxCell id="28MRgLjDr1vpFrhW2gKt-51" value="+ urlLinkedin" style="text;strokeColor=none;fillColor=#000000;align=left;verticalAlign=top;spacingLeft=4;spacingRight=4;overflow=hidden;rotatable=0;points=[[0,0.5],[1,0.5]];portConstraint=eastwest;whiteSpace=wrap;html=1;fontColor=#FFFFFF;" vertex="1" parent="28MRgLjDr1vpFrhW2gKt-48">
          <mxGeometry y="78" width="160" height="26" as="geometry" />
        </mxCell>
        <mxCell id="28MRgLjDr1vpFrhW2gKt-52" value="+ recommandationLinkedin" style="text;strokeColor=none;fillColor=none;align=left;verticalAlign=top;spacingLeft=4;spacingRight=4;overflow=hidden;rotatable=0;points=[[0,0.5],[1,0.5]];portConstraint=eastwest;whiteSpace=wrap;html=1;fontColor=#FFFFFF;" vertex="1" parent="28MRgLjDr1vpFrhW2gKt-48">
          <mxGeometry y="104" width="160" height="26" as="geometry" />
        </mxCell>
        <mxCell id="28MRgLjDr1vpFrhW2gKt-69" value="" style="rounded=1;orthogonalLoop=1;jettySize=auto;html=1;endArrow=none;endFill=0;edgeStyle=orthogonalEdgeStyle;" edge="1" parent="1" source="28MRgLjDr1vpFrhW2gKt-133" target="28MRgLjDr1vpFrhW2gKt-62">
          <mxGeometry relative="1" as="geometry" />
        </mxCell>
        <mxCell id="28MRgLjDr1vpFrhW2gKt-71" value="1,1" style="edgeLabel;html=1;align=center;verticalAlign=middle;resizable=0;points=[];" vertex="1" connectable="0" parent="28MRgLjDr1vpFrhW2gKt-69">
          <mxGeometry x="0.8103" y="1" relative="1" as="geometry">
            <mxPoint x="9" y="-14" as="offset" />
          </mxGeometry>
        </mxCell>
        <mxCell id="28MRgLjDr1vpFrhW2gKt-111" value="" style="edgeStyle=orthogonalEdgeStyle;rounded=1;orthogonalLoop=1;jettySize=auto;html=1;strokeColor=default;endArrow=none;endFill=0;" edge="1" parent="1">
          <mxGeometry relative="1" as="geometry">
            <mxPoint x="680" y="600" as="sourcePoint" />
            <mxPoint x="960" y="650" as="targetPoint" />
            <Array as="points">
              <mxPoint x="820" y="600" />
              <mxPoint x="820" y="650" />
            </Array>
          </mxGeometry>
        </mxCell>
        <object label="User" placeholders="1" id="28MRgLjDr1vpFrhW2gKt-53">
          <mxCell style="swimlane;fontStyle=0;childLayout=stackLayout;horizontal=1;startSize=26;fillColor=#B3B3B3;horizontalStack=0;resizeParent=1;resizeParentMax=0;resizeLast=0;collapsible=1;marginBottom=0;html=1;rounded=1;swimlaneFillColor=#666666;fontColor=#FFFFFF;" vertex="1" parent="1">
            <mxGeometry x="520" y="480" width="160" height="182" as="geometry">
              <mxRectangle x="360" y="280" width="120" height="30" as="alternateBounds" />
            </mxGeometry>
          </mxCell>
        </object>
        <mxCell id="28MRgLjDr1vpFrhW2gKt-54" value="+ id" style="text;strokeColor=none;fillColor=#000000;align=left;verticalAlign=top;spacingLeft=4;spacingRight=4;overflow=hidden;rotatable=0;points=[[0,0.5],[1,0.5]];portConstraint=eastwest;whiteSpace=wrap;html=1;glass=0;shadow=0;fontColor=#FFFFFF;" vertex="1" parent="28MRgLjDr1vpFrhW2gKt-53">
          <mxGeometry y="26" width="160" height="26" as="geometry" />
        </mxCell>
        <mxCell id="28MRgLjDr1vpFrhW2gKt-55" value="+ userName" style="text;strokeColor=none;fillColor=none;align=left;verticalAlign=top;spacingLeft=4;spacingRight=4;overflow=hidden;rotatable=0;points=[[0,0.5],[1,0.5]];portConstraint=eastwest;whiteSpace=wrap;html=1;fontColor=#FFFFFF;" vertex="1" parent="28MRgLjDr1vpFrhW2gKt-53">
          <mxGeometry y="52" width="160" height="26" as="geometry" />
        </mxCell>
        <mxCell id="28MRgLjDr1vpFrhW2gKt-56" value="+ password" style="text;strokeColor=none;fillColor=#000000;align=left;verticalAlign=top;spacingLeft=4;spacingRight=4;overflow=hidden;rotatable=0;points=[[0,0.5],[1,0.5]];portConstraint=eastwest;whiteSpace=wrap;html=1;fontColor=#FFFFFF;" vertex="1" parent="28MRgLjDr1vpFrhW2gKt-53">
          <mxGeometry y="78" width="160" height="26" as="geometry" />
        </mxCell>
        <mxCell id="28MRgLjDr1vpFrhW2gKt-57" value="+ email" style="text;strokeColor=none;fillColor=none;align=left;verticalAlign=top;spacingLeft=4;spacingRight=4;overflow=hidden;rotatable=0;points=[[0,0.5],[1,0.5]];portConstraint=eastwest;whiteSpace=wrap;html=1;fontColor=#FFFFFF;" vertex="1" parent="28MRgLjDr1vpFrhW2gKt-53">
          <mxGeometry y="104" width="160" height="26" as="geometry" />
        </mxCell>
        <mxCell id="28MRgLjDr1vpFrhW2gKt-60" value="+ isYoutuber" style="text;strokeColor=none;fillColor=#000000;align=left;verticalAlign=top;spacingLeft=4;spacingRight=4;overflow=hidden;rotatable=0;points=[[0,0.5],[1,0.5]];portConstraint=eastwest;whiteSpace=wrap;html=1;fontColor=#FFFFFF;gradientColor=none;" vertex="1" parent="28MRgLjDr1vpFrhW2gKt-53">
          <mxGeometry y="130" width="160" height="26" as="geometry" />
        </mxCell>
        <mxCell id="28MRgLjDr1vpFrhW2gKt-61" value="+ isProfessional" style="text;strokeColor=none;fillColor=none;align=left;verticalAlign=top;spacingLeft=4;spacingRight=4;overflow=hidden;rotatable=0;points=[[0,0.5],[1,0.5]];portConstraint=eastwest;whiteSpace=wrap;html=1;fontColor=#FFFFFF;" vertex="1" parent="28MRgLjDr1vpFrhW2gKt-53">
          <mxGeometry y="156" width="160" height="26" as="geometry" />
        </mxCell>
        <object label="Youtuber" placeholders="1" id="28MRgLjDr1vpFrhW2gKt-62">
          <mxCell style="swimlane;fontStyle=0;childLayout=stackLayout;horizontal=1;startSize=26;fillColor=#B3B3B3;horizontalStack=0;resizeParent=1;resizeParentMax=0;resizeLast=0;collapsible=1;marginBottom=0;html=1;rounded=1;swimlaneFillColor=#000000;fontColor=#FFFFFF;" vertex="1" parent="1">
            <mxGeometry x="120" y="481" width="160" height="104" as="geometry">
              <mxRectangle x="360" y="280" width="120" height="30" as="alternateBounds" />
            </mxGeometry>
          </mxCell>
        </object>
        <mxCell id="28MRgLjDr1vpFrhW2gKt-63" value="+ id" style="text;strokeColor=none;fillColor=none;align=left;verticalAlign=top;spacingLeft=4;spacingRight=4;overflow=hidden;rotatable=0;points=[[0,0.5],[1,0.5]];portConstraint=eastwest;whiteSpace=wrap;html=1;glass=0;shadow=0;fontColor=#FFFFFF;" vertex="1" parent="28MRgLjDr1vpFrhW2gKt-62">
          <mxGeometry y="26" width="160" height="26" as="geometry" />
        </mxCell>
        <mxCell id="28MRgLjDr1vpFrhW2gKt-64" value="+ userId" style="text;strokeColor=none;fillColor=#666666;align=left;verticalAlign=top;spacingLeft=4;spacingRight=4;overflow=hidden;rotatable=0;points=[[0,0.5],[1,0.5]];portConstraint=eastwest;whiteSpace=wrap;html=1;fontColor=#FFFFFF;" vertex="1" parent="28MRgLjDr1vpFrhW2gKt-62">
          <mxGeometry y="52" width="160" height="26" as="geometry" />
        </mxCell>
        <mxCell id="28MRgLjDr1vpFrhW2gKt-65" value="+ tagChannel" style="text;strokeColor=none;fillColor=none;align=left;verticalAlign=top;spacingLeft=4;spacingRight=4;overflow=hidden;rotatable=0;points=[[0,0.5],[1,0.5]];portConstraint=eastwest;whiteSpace=wrap;html=1;fontColor=#FFFFFF;" vertex="1" parent="28MRgLjDr1vpFrhW2gKt-62">
          <mxGeometry y="78" width="160" height="26" as="geometry" />
        </mxCell>
        <mxCell id="28MRgLjDr1vpFrhW2gKt-83" value="" style="rounded=1;orthogonalLoop=1;jettySize=auto;html=1;endArrow=none;endFill=0;edgeStyle=orthogonalEdgeStyle;" edge="1" parent="1" source="28MRgLjDr1vpFrhW2gKt-128" target="28MRgLjDr1vpFrhW2gKt-80">
          <mxGeometry relative="1" as="geometry" />
        </mxCell>
        <object label="Category" placeholders="1" id="28MRgLjDr1vpFrhW2gKt-72">
          <mxCell style="swimlane;fontStyle=0;childLayout=stackLayout;horizontal=1;startSize=26;fillColor=#B3B3B3;horizontalStack=0;resizeParent=1;resizeParentMax=0;resizeLast=0;collapsible=1;marginBottom=0;html=1;rounded=1;swimlaneFillColor=#666666;fontColor=#FFFFFF;" vertex="1" parent="1">
            <mxGeometry x="920" y="332" width="160" height="78" as="geometry">
              <mxRectangle x="360" y="280" width="120" height="30" as="alternateBounds" />
            </mxGeometry>
          </mxCell>
        </object>
        <mxCell id="28MRgLjDr1vpFrhW2gKt-73" value="+ id" style="text;strokeColor=none;fillColor=#000000;align=left;verticalAlign=top;spacingLeft=4;spacingRight=4;overflow=hidden;rotatable=0;points=[[0,0.5],[1,0.5]];portConstraint=eastwest;whiteSpace=wrap;html=1;glass=0;shadow=0;fontColor=#FFFFFF;" vertex="1" parent="28MRgLjDr1vpFrhW2gKt-72">
          <mxGeometry y="26" width="160" height="26" as="geometry" />
        </mxCell>
        <mxCell id="28MRgLjDr1vpFrhW2gKt-74" value="+ name" style="text;strokeColor=none;fillColor=none;align=left;verticalAlign=top;spacingLeft=4;spacingRight=4;overflow=hidden;rotatable=0;points=[[0,0.5],[1,0.5]];portConstraint=eastwest;whiteSpace=wrap;html=1;fontColor=#FFFFFF;" vertex="1" parent="28MRgLjDr1vpFrhW2gKt-72">
          <mxGeometry y="52" width="160" height="26" as="geometry" />
        </mxCell>
        <object label="Tags" placeholders="1" id="28MRgLjDr1vpFrhW2gKt-80">
          <mxCell style="swimlane;fontStyle=0;childLayout=stackLayout;horizontal=1;startSize=26;fillColor=#B3B3B3;horizontalStack=0;resizeParent=1;resizeParentMax=0;resizeLast=0;collapsible=1;marginBottom=0;html=1;rounded=1;swimlaneFillColor=#666666;fontColor=#FFFFFF;" vertex="1" parent="1">
            <mxGeometry x="1161" y="760" width="160" height="130" as="geometry">
              <mxRectangle x="1161" y="760" width="120" height="30" as="alternateBounds" />
            </mxGeometry>
          </mxCell>
        </object>
        <mxCell id="28MRgLjDr1vpFrhW2gKt-81" value="+ id" style="text;strokeColor=none;fillColor=#000000;align=left;verticalAlign=top;spacingLeft=4;spacingRight=4;overflow=hidden;rotatable=0;points=[[0,0.5],[1,0.5]];portConstraint=eastwest;whiteSpace=wrap;html=1;glass=0;shadow=0;fontColor=#FFFFFF;" vertex="1" parent="28MRgLjDr1vpFrhW2gKt-80">
          <mxGeometry y="26" width="160" height="26" as="geometry" />
        </mxCell>
        <mxCell id="28MRgLjDr1vpFrhW2gKt-82" value="+ name" style="text;strokeColor=none;fillColor=none;align=left;verticalAlign=top;spacingLeft=4;spacingRight=4;overflow=hidden;rotatable=0;points=[[0,0.5],[1,0.5]];portConstraint=eastwest;whiteSpace=wrap;html=1;fontColor=#FFFFFF;" vertex="1" parent="28MRgLjDr1vpFrhW2gKt-80">
          <mxGeometry y="52" width="160" height="26" as="geometry" />
        </mxCell>
        <mxCell id="28MRgLjDr1vpFrhW2gKt-105" value="+ categoryId" style="text;strokeColor=none;fillColor=#000000;align=left;verticalAlign=top;spacingLeft=4;spacingRight=4;overflow=hidden;rotatable=0;points=[[0,0.5],[1,0.5]];portConstraint=eastwest;whiteSpace=wrap;html=1;fontColor=#FFFFFF;" vertex="1" parent="28MRgLjDr1vpFrhW2gKt-80">
          <mxGeometry y="78" width="160" height="26" as="geometry" />
        </mxCell>
        <mxCell id="28MRgLjDr1vpFrhW2gKt-106" value="+ userId" style="text;strokeColor=none;fillColor=none;align=left;verticalAlign=top;spacingLeft=4;spacingRight=4;overflow=hidden;rotatable=0;points=[[0,0.5],[1,0.5]];portConstraint=eastwest;whiteSpace=wrap;html=1;fontColor=#FFFFFF;" vertex="1" parent="28MRgLjDr1vpFrhW2gKt-80">
          <mxGeometry y="104" width="160" height="26" as="geometry" />
        </mxCell>
        <mxCell id="28MRgLjDr1vpFrhW2gKt-104" style="edgeStyle=orthogonalEdgeStyle;rounded=1;orthogonalLoop=1;jettySize=auto;html=1;endArrow=none;endFill=0;" edge="1" parent="1" source="28MRgLjDr1vpFrhW2gKt-126" target="28MRgLjDr1vpFrhW2gKt-53">
          <mxGeometry relative="1" as="geometry">
            <mxPoint x="1001" y="799.0344827586207" as="sourcePoint" />
            <Array as="points">
              <mxPoint x="580" y="825" />
            </Array>
          </mxGeometry>
        </mxCell>
        <mxCell id="28MRgLjDr1vpFrhW2gKt-113" style="edgeStyle=orthogonalEdgeStyle;rounded=1;orthogonalLoop=1;jettySize=auto;html=1;endArrow=none;endFill=0;" edge="1" parent="1" source="28MRgLjDr1vpFrhW2gKt-110" target="28MRgLjDr1vpFrhW2gKt-53">
          <mxGeometry relative="1" as="geometry">
            <Array as="points">
              <mxPoint x="1000" y="720" />
              <mxPoint x="620" y="720" />
            </Array>
          </mxGeometry>
        </mxCell>
        <mxCell id="28MRgLjDr1vpFrhW2gKt-110" value="Subscribe" style="whiteSpace=wrap;html=1;fillColor=#666666;fontColor=#FFFFFF;fontStyle=0;startSize=26;rounded=1;swimlaneFillColor=#666666;" vertex="1" parent="1">
          <mxGeometry x="960" y="620" width="80" height="40" as="geometry" />
        </mxCell>
        <mxCell id="28MRgLjDr1vpFrhW2gKt-120" value="" style="edgeStyle=orthogonalEdgeStyle;rounded=1;orthogonalLoop=1;jettySize=auto;html=1;jumpStyle=none;strokeColor=default;endArrow=none;endFill=0;" edge="1" parent="1" source="28MRgLjDr1vpFrhW2gKt-53" target="28MRgLjDr1vpFrhW2gKt-119">
          <mxGeometry relative="1" as="geometry">
            <mxPoint x="680" y="570" as="sourcePoint" />
            <mxPoint x="920" y="359" as="targetPoint" />
            <Array as="points">
              <mxPoint x="745" y="560" />
              <mxPoint x="745" y="500" />
            </Array>
          </mxGeometry>
        </mxCell>
        <mxCell id="28MRgLjDr1vpFrhW2gKt-125" style="edgeStyle=orthogonalEdgeStyle;rounded=1;orthogonalLoop=1;jettySize=auto;html=1;endArrow=none;endFill=0;" edge="1" parent="1" source="28MRgLjDr1vpFrhW2gKt-119" target="28MRgLjDr1vpFrhW2gKt-72">
          <mxGeometry relative="1" as="geometry" />
        </mxCell>
        <mxCell id="28MRgLjDr1vpFrhW2gKt-119" value="Like" style="whiteSpace=wrap;html=1;fillColor=#666666;fontColor=#FFFFFF;fontStyle=0;startSize=26;rounded=1;swimlaneFillColor=#666666;" vertex="1" parent="1">
          <mxGeometry x="810" y="480" width="80" height="40" as="geometry" />
        </mxCell>
        <mxCell id="28MRgLjDr1vpFrhW2gKt-127" value="" style="rounded=1;orthogonalLoop=1;jettySize=auto;html=1;endArrow=none;endFill=0;edgeStyle=orthogonalEdgeStyle;" edge="1" parent="1" source="28MRgLjDr1vpFrhW2gKt-80" target="28MRgLjDr1vpFrhW2gKt-126">
          <mxGeometry relative="1" as="geometry">
            <mxPoint x="1161" y="825" as="sourcePoint" />
            <mxPoint x="580" y="662" as="targetPoint" />
          </mxGeometry>
        </mxCell>
        <mxCell id="28MRgLjDr1vpFrhW2gKt-126" value="Like" style="whiteSpace=wrap;html=1;fillColor=#666666;fontColor=#FFFFFF;fontStyle=0;startSize=26;rounded=1;swimlaneFillColor=#666666;" vertex="1" parent="1">
          <mxGeometry x="830" y="805" width="80" height="40" as="geometry" />
        </mxCell>
        <mxCell id="28MRgLjDr1vpFrhW2gKt-129" value="" style="edgeStyle=orthogonalEdgeStyle;rounded=1;orthogonalLoop=1;jettySize=auto;html=1;endArrow=none;endFill=0;" edge="1" parent="1" source="28MRgLjDr1vpFrhW2gKt-72" target="28MRgLjDr1vpFrhW2gKt-128">
          <mxGeometry relative="1" as="geometry">
            <mxPoint x="1080" y="371" as="sourcePoint" />
            <mxPoint x="1241" y="760" as="targetPoint" />
          </mxGeometry>
        </mxCell>
        <mxCell id="28MRgLjDr1vpFrhW2gKt-128" value="Contain" style="whiteSpace=wrap;html=1;fillColor=#666666;fontColor=#FFFFFF;fontStyle=0;startSize=26;rounded=1;swimlaneFillColor=#666666;" vertex="1" parent="1">
          <mxGeometry x="1201" y="533" width="80" height="40" as="geometry" />
        </mxCell>
        <mxCell id="28MRgLjDr1vpFrhW2gKt-131" value="" style="edgeStyle=orthogonalEdgeStyle;rounded=1;orthogonalLoop=1;jettySize=auto;html=1;flowAnimation=0;endArrow=none;endFill=0;" edge="1" parent="1" source="28MRgLjDr1vpFrhW2gKt-48" target="28MRgLjDr1vpFrhW2gKt-130">
          <mxGeometry relative="1" as="geometry">
            <mxPoint x="600" y="410" as="sourcePoint" />
            <mxPoint x="600" y="480" as="targetPoint" />
          </mxGeometry>
        </mxCell>
        <mxCell id="28MRgLjDr1vpFrhW2gKt-132" value="1,1" style="edgeLabel;html=1;align=center;verticalAlign=middle;resizable=0;points=[];" vertex="1" connectable="0" parent="28MRgLjDr1vpFrhW2gKt-131">
          <mxGeometry x="-0.2226" y="-1" relative="1" as="geometry">
            <mxPoint x="19" y="-5" as="offset" />
          </mxGeometry>
        </mxCell>
        <mxCell id="28MRgLjDr1vpFrhW2gKt-136" value="1,1" style="edgeLabel;html=1;align=center;verticalAlign=middle;resizable=0;points=[];" vertex="1" connectable="0" parent="28MRgLjDr1vpFrhW2gKt-131">
          <mxGeometry x="-0.2226" y="-1" relative="1" as="geometry">
            <mxPoint x="19" y="84" as="offset" />
          </mxGeometry>
        </mxCell>
        <mxCell id="28MRgLjDr1vpFrhW2gKt-137" value="1,1" style="edgeLabel;html=1;align=center;verticalAlign=middle;resizable=0;points=[];" vertex="1" connectable="0" parent="28MRgLjDr1vpFrhW2gKt-131">
          <mxGeometry x="-0.2226" y="-1" relative="1" as="geometry">
            <mxPoint x="-99" y="174" as="offset" />
          </mxGeometry>
        </mxCell>
        <mxCell id="28MRgLjDr1vpFrhW2gKt-138" value="0,n" style="edgeLabel;html=1;align=center;verticalAlign=middle;resizable=0;points=[];" vertex="1" connectable="0" parent="28MRgLjDr1vpFrhW2gKt-131">
          <mxGeometry x="-0.2226" y="-1" relative="1" as="geometry">
            <mxPoint x="101" y="165" as="offset" />
          </mxGeometry>
        </mxCell>
        <mxCell id="28MRgLjDr1vpFrhW2gKt-139" value="0,n" style="edgeLabel;html=1;align=center;verticalAlign=middle;resizable=0;points=[];" vertex="1" connectable="0" parent="28MRgLjDr1vpFrhW2gKt-131">
          <mxGeometry x="-0.2226" y="-1" relative="1" as="geometry">
            <mxPoint x="101" y="205" as="offset" />
          </mxGeometry>
        </mxCell>
        <mxCell id="28MRgLjDr1vpFrhW2gKt-140" value="0,n" style="edgeLabel;html=1;align=center;verticalAlign=middle;resizable=0;points=[];" vertex="1" connectable="0" parent="28MRgLjDr1vpFrhW2gKt-131">
          <mxGeometry x="-0.2226" y="-1" relative="1" as="geometry">
            <mxPoint x="421" y="55" as="offset" />
          </mxGeometry>
        </mxCell>
        <mxCell id="28MRgLjDr1vpFrhW2gKt-141" value="0,n" style="edgeLabel;html=1;align=center;verticalAlign=middle;resizable=0;points=[];" vertex="1" connectable="0" parent="28MRgLjDr1vpFrhW2gKt-131">
          <mxGeometry x="-0.2226" y="-1" relative="1" as="geometry">
            <mxPoint x="501" y="-25" as="offset" />
          </mxGeometry>
        </mxCell>
        <mxCell id="28MRgLjDr1vpFrhW2gKt-142" value="0,n" style="edgeLabel;html=1;align=center;verticalAlign=middle;resizable=0;points=[];" vertex="1" connectable="0" parent="28MRgLjDr1vpFrhW2gKt-131">
          <mxGeometry x="-0.2226" y="-1" relative="1" as="geometry">
            <mxPoint x="661" y="365" as="offset" />
          </mxGeometry>
        </mxCell>
        <mxCell id="28MRgLjDr1vpFrhW2gKt-143" value="0,n" style="edgeLabel;html=1;align=center;verticalAlign=middle;resizable=0;points=[];" vertex="1" connectable="0" parent="28MRgLjDr1vpFrhW2gKt-131">
          <mxGeometry x="-0.2226" y="-1" relative="1" as="geometry">
            <mxPoint x="541" y="435" as="offset" />
          </mxGeometry>
        </mxCell>
        <mxCell id="28MRgLjDr1vpFrhW2gKt-144" value="0,n" style="edgeLabel;html=1;align=center;verticalAlign=middle;resizable=0;points=[];" vertex="1" connectable="0" parent="28MRgLjDr1vpFrhW2gKt-131">
          <mxGeometry x="-0.2226" y="-1" relative="1" as="geometry">
            <mxPoint x="41" y="305" as="offset" />
          </mxGeometry>
        </mxCell>
        <mxCell id="28MRgLjDr1vpFrhW2gKt-145" value="0,n" style="edgeLabel;html=1;align=center;verticalAlign=middle;resizable=0;points=[];" vertex="1" connectable="0" parent="28MRgLjDr1vpFrhW2gKt-131">
          <mxGeometry x="-0.2226" y="-1" relative="1" as="geometry">
            <mxPoint x="1" y="305" as="offset" />
          </mxGeometry>
        </mxCell>
        <mxCell id="28MRgLjDr1vpFrhW2gKt-130" value="Define" style="whiteSpace=wrap;html=1;fillColor=#666666;fontColor=#FFFFFF;fontStyle=0;startSize=26;rounded=1;swimlaneFillColor=#666666;" vertex="1" parent="1">
          <mxGeometry x="560" y="400" width="80" height="40" as="geometry" />
        </mxCell>
        <mxCell id="28MRgLjDr1vpFrhW2gKt-134" value="" style="edgeStyle=orthogonalEdgeStyle;rounded=1;orthogonalLoop=1;jettySize=auto;html=1;endArrow=none;endFill=0;" edge="1" parent="1" source="28MRgLjDr1vpFrhW2gKt-53" target="28MRgLjDr1vpFrhW2gKt-133">
          <mxGeometry relative="1" as="geometry">
            <mxPoint x="520" y="571" as="sourcePoint" />
            <mxPoint x="360" y="533" as="targetPoint" />
          </mxGeometry>
        </mxCell>
        <mxCell id="28MRgLjDr1vpFrhW2gKt-133" value="Define" style="whiteSpace=wrap;html=1;fillColor=#666666;fontColor=#FFFFFF;fontStyle=0;startSize=26;rounded=1;swimlaneFillColor=#666666;" vertex="1" parent="1">
          <mxGeometry x="360" y="513" width="80" height="40" as="geometry" />
        </mxCell>
      </root>
    </mxGraphModel>
  </diagram>
</mxfile>
